<?xml version="1.0" standalone="no"?>
<!DOCTYPE svg PUBLIC "-//W3C//DTD SVG 20010904//EN"
 "http://www.w3.org/TR/2001/REC-SVG-20010904/DTD/svg10.dtd">
<svg version="1.0" xmlns="http://www.w3.org/2000/svg"
 width="168.000000pt" height="168.000000pt" viewBox="0 0 168.000000 168.000000"
 preserveAspectRatio="xMidYMid meet">
<metadata>
Created by potrace 1.11, written by Peter Selinger 2001-2013
</metadata>
<g transform="translate(0.000000,168.000000) scale(0.100000,-0.100000)"
fill="#000000" stroke="none">
<path d="M0 840 l0 -840 840 0 840 0 0 840 0 840 -840 0 -840 0 0 -840z m265
93 c13 -12 15 -26 11 -57 -10 -65 -10 -80 -2 -103 6 -20 4 -23 -18 -23 -19 0
-26 6 -31 30 -5 21 -13 30 -26 30 -14 0 -19 -7 -19 -30 0 -25 -4 -30 -25 -30
l-25 0 0 100 0 100 59 0 c42 0 64 -5 76 -17z m175 -3 c0 -17 -7 -20 -40 -20
-33 0 -40 -3 -40 -20 0 -16 7 -20 36 -20 28 0 35 -3 32 -17 -2 -12 -14 -19
-36 -21 -24 -2 -32 -8 -32 -23 0 -16 7 -19 40 -19 33 0 40 -3 40 -20 0 -18 -7
-20 -65 -20 l-65 0 0 100 0 100 65 0 c58 0 65 -2 65 -20z m160 0 c43 -43 11
-120 -50 -120 -27 0 -30 -3 -30 -30 0 -25 -4 -30 -25 -30 l-25 0 0 100 0 100
55 0 c42 0 60 -5 75 -20z m171 1 c20 -16 24 -28 24 -79 0 -77 -20 -102 -81
-102 -61 0 -88 35 -82 107 3 32 12 61 23 73 24 26 84 27 116 1z m253 -3 c20
-28 20 -57 1 -85 -13 -19 -13 -25 0 -57 15 -36 15 -36 -10 -36 -20 0 -29 7
-36 30 -7 19 -18 30 -30 30 -14 0 -19 -7 -19 -30 0 -23 -4 -30 -20 -30 -19 0
-20 7 -20 100 l0 100 59 0 c51 0 62 -3 75 -22z m176 2 c0 -17 -7 -20 -45 -20
-38 0 -45 -3 -45 -20 0 -16 7 -20 35 -20 28 0 35 -4 35 -20 0 -16 -7 -20 -35
-20 -28 0 -35 -4 -35 -20 0 -17 7 -20 45 -20 38 0 45 -3 45 -20 0 -18 -7 -20
-65 -20 l-65 0 0 100 0 100 65 0 c58 0 65 -2 65 -20z m158 -2 c3 -13 -6 -17
-40 -20 l-43 -3 0 -55 0 -55 43 -3 c34 -3 43 -7 40 -20 -4 -23 -85 -29 -113
-8 -17 12 -20 26 -20 86 0 60 3 74 20 86 28 21 109 15 113 -8z m160 5 c-2 -13
-15 -19 -46 -21 -34 -3 -42 -7 -42 -23 0 -15 7 -19 36 -19 28 0 35 -3 32 -17
-2 -12 -14 -19 -36 -21 -24 -2 -32 -8 -32 -22 0 -15 9 -19 42 -22 31 -2 44 -8
46 -20 3 -16 -5 -18 -67 -18 l-71 0 0 100 0 100 71 0 c62 0 70 -2 67 -17z"/>
<path d="M180 880 c0 -25 4 -30 24 -30 16 0 27 7 31 20 9 27 -1 40 -31 40 -20
0 -24 -5 -24 -30z"/>
<path d="M520 880 c0 -25 4 -30 25 -30 21 0 25 5 25 30 0 25 -4 30 -25 30 -21
0 -25 -5 -25 -30z"/>
<path d="M684 897 c-3 -8 -4 -34 -2 -58 3 -41 5 -44 33 -44 30 0 30 1 30 55 0
53 -1 55 -28 58 -17 2 -29 -2 -33 -11z"/>
<path d="M930 879 c0 -27 3 -30 28 -27 21 2 28 9 30 31 3 24 0 27 -27 27 -28
0 -31 -3 -31 -31z"/>
</g>
</svg>
